<svg width="25" height="24" viewBox="0 0 25 24" fill="none" xmlns="http://www.w3.org/2000/svg">
<path d="M11.49 21.95C11.82 21.98 12.16 22 12.5 22C12.84 22 13.18 21.98 13.51 21.95H11.49ZM12.5 2C6.99 2 2.5 6.49 2.5 12C2.5 14.38 3.32 16.54 4.7 18.25C4.95 18.57 5.22 18.87 5.51 19.14L5.57 19.2C6.03 19.65 6.54 20.05 7.08 20.39C8.37 21.24 9.88 21.79 11.49 21.95H13.51C15.16 21.78 16.7 21.21 18.02 20.33C18.55 19.99 19.04 19.59 19.49 19.14H19.5C19.79 18.86 20.05 18.57 20.3 18.25C21.7306 16.4818 22.5076 14.2744 22.5 12C22.5 6.49 18.01 2 12.5 2ZM19.79 17.28C19.69 17.42 19.58 17.55 19.48 17.69C19.34 17.85 19.2 18.01 19.05 18.17C18.89 18.34 18.72 18.51 18.54 18.66C16.94 20.12 14.82 21 12.5 21C10.18 21 8.11 20.14 6.52 18.72C6.32032 18.547 6.13004 18.3634 5.95 18.17C5.82 18.04 5.7 17.9 5.57 17.76L5.21 17.28C4.09235 15.747 3.49327 13.8972 3.5 12C3.5 7.04 7.54 3.01 12.5 3.01C17.46 3.01 21.5 7.04 21.5 12C21.5 13.98 20.87 15.8 19.79 17.28Z" fill="#FAFAFA"/>
<path d="M12.5301 4.91003C10.3101 4.91003 8.50007 6.72003 8.50007 8.95003C8.50007 11.18 10.3101 12.99 12.5301 12.99C14.7501 12.99 16.5601 11.18 16.5601 8.95003C16.5601 6.72003 14.7501 4.91003 12.5301 4.91003ZM12.5301 12.09C10.8001 12.09 9.39007 10.68 9.39007 8.95003C9.39007 7.22003 10.8001 5.81003 12.5301 5.81003C14.2601 5.81003 15.6701 7.22003 15.6701 8.95003C15.6701 10.68 14.2601 12.09 12.5301 12.09ZM15.0801 14.02H9.98007C7.77007 14.02 5.92007 15.64 5.57007 17.76C5.70007 17.9 5.82007 18.04 5.95007 18.17C6.13007 18.36 6.32007 18.55 6.52007 18.72C6.51007 18.64 6.51007 18.57 6.51007 18.49C6.51007 16.58 8.07007 15.02 9.98007 15.02H15.0801C17.0001 15.02 18.5501 16.58 18.5501 18.49C18.5501 18.55 18.5501 18.6 18.5401 18.66C18.7201 18.51 18.8901 18.34 19.0501 18.17C19.2001 18.01 19.3401 17.85 19.4801 17.69C19.2928 16.6597 18.7498 15.7279 17.9456 15.0571C17.1414 14.3864 16.1272 14.0193 15.0801 14.02ZM11.4901 21.95C11.8201 21.98 12.1601 22 12.5001 22C12.8401 22 13.1801 21.98 13.5101 21.95H11.4901Z" fill="#FAFAFA"/>
</svg>
