<svg width="24" height="24" viewBox="0 0 24 24" fill="none" xmlns="http://www.w3.org/2000/svg">
<path d="M13.96 21.92C13.42 21.92 12.91 21.65 12.59 21.19C12.3 20.76 11.62 20.76 11.33 21.19C10.93 21.77 10.24 22.04 9.56005 21.88C9.22643 21.8007 8.92581 21.6194 8.7 21.3613C8.47418 21.1033 8.33439 20.7812 8.30005 20.44C8.28664 20.3139 8.24217 20.1931 8.17061 20.0884C8.09906 19.9837 8.00266 19.8984 7.89004 19.84C7.78104 19.781 7.65902 19.75 7.53504 19.75C7.41106 19.75 7.28904 19.781 7.18004 19.84C6.56004 20.17 5.82005 20.09 5.30005 19.62C4.77005 19.15 4.59005 18.42 4.84005 17.76C4.93005 17.52 4.90005 17.25 4.75005 17.04C4.60004 16.83 4.34004 16.73 4.12004 16.71C3.42004 16.71 2.81005 16.29 2.56005 15.63C2.31005 14.97 2.49005 14.24 3.02005 13.77C3.21005 13.6 3.31005 13.35 3.28005 13.09C3.26654 12.9652 3.22192 12.8458 3.15029 12.7427C3.07866 12.6397 2.9823 12.5562 2.87004 12.5C2.25004 12.17 1.90005 11.51 1.98005 10.81C2.07005 10.11 2.56005 9.55004 3.25005 9.38004C3.37064 9.35226 3.48235 9.29468 3.57494 9.21257C3.66753 9.13047 3.73805 9.02645 3.78005 8.91004C3.87005 8.67004 3.84005 8.40003 3.69005 8.19003C3.29005 7.61003 3.29005 6.86004 3.69005 6.27004C4.09005 5.69004 4.79004 5.43004 5.47004 5.60004C5.72004 5.66004 5.97004 5.60004 6.16004 5.43004C6.35004 5.26004 6.45005 5.01004 6.42004 4.75004C6.33004 4.05004 6.68005 3.38004 7.30005 3.05004C7.92004 2.72004 8.66005 2.82004 9.18005 3.29004C9.37005 3.46004 9.62004 3.53004 9.87004 3.46004C10.12 3.40004 10.31 3.22004 10.4 2.98004C10.517 2.66028 10.7293 2.38417 11.0083 2.1891C11.2874 1.99402 11.6196 1.8894 11.96 1.8894C12.3005 1.8894 12.6327 1.99402 12.9118 2.1891C13.1908 2.38417 13.4031 2.66028 13.52 2.98004C13.61 3.22004 13.81 3.40004 14.05 3.46004C14.3 3.52004 14.55 3.46004 14.74 3.29004C15.26 2.82004 16 2.72004 16.62 3.05004C17.25 3.38004 17.59 4.04004 17.5 4.75004C17.47 5.01004 17.56 5.26004 17.76 5.43004C17.95 5.60004 18.2 5.66004 18.45 5.60004C19.13 5.43004 19.83 5.69004 20.23 6.27004C20.63 6.85004 20.63 7.60003 20.23 8.19003C20.08 8.40003 20.05 8.67004 20.14 8.91004C20.23 9.15003 20.43 9.32004 20.68 9.38004C21.36 9.55004 21.86 10.1 21.94 10.8C22.03 11.5 21.68 12.17 21.05 12.49C20.9378 12.5462 20.8414 12.6297 20.7698 12.7327C20.6982 12.8358 20.6536 12.9552 20.64 13.08C20.61 13.34 20.7 13.58 20.9 13.76C21.43 14.23 21.61 14.96 21.36 15.62C21.11 16.27 20.5 16.7 19.8 16.7H19.79C19.54 16.7 19.31 16.82 19.16 17.03C19.01 17.24 18.98 17.51 19.07 17.75C19.32 18.41 19.14 19.14 18.61 19.61C18.08 20.07 17.34 20.16 16.73 19.83C16.621 19.771 16.499 19.74 16.375 19.74C16.2511 19.74 16.129 19.771 16.02 19.83C15.79 19.95 15.64 20.17 15.61 20.43C15.5646 20.8389 15.3703 21.2168 15.0641 21.4916C14.758 21.7663 14.3614 21.9189 13.95 21.92H13.96ZM7.53005 18.85C7.79004 18.85 8.06005 18.91 8.30005 19.04C8.79004 19.3 9.12004 19.78 9.19004 20.33C9.24004 20.72 9.52005 20.93 9.77005 20.99C9.89005 21.02 10.3 21.08 10.58 20.68C10.89 20.22 11.41 19.95 11.96 19.95C12.51 19.95 13.03 20.22 13.34 20.68C13.62 21.09 14.03 21.02 14.15 20.99C14.4 20.93 14.68 20.72 14.73 20.33C14.79 19.78 15.12 19.29 15.62 19.04C16.11 18.78 16.69 18.79 17.18 19.04C17.61 19.27 17.95 19.02 18.04 18.94C18.23 18.77 18.39 18.45 18.25 18.08C18.05 17.56 18.12 16.98 18.44 16.52C18.75 16.07 19.26 15.8 19.81 15.8H19.82C20.31 15.8 20.49 15.42 20.53 15.31C20.62 15.07 20.62 14.71 20.32 14.45C19.91 14.08 19.7 13.54 19.76 12.99C19.83 12.44 20.16 11.96 20.65 11.71C21 11.53 21.09 11.19 21.06 10.93C21.0433 10.7736 20.9786 10.6262 20.8748 10.508C20.7709 10.3899 20.633 10.3067 20.48 10.27C19.95 10.14 19.51 9.75004 19.31 9.24004C19.11 8.72004 19.18 8.14004 19.5 7.68004C19.73 7.35004 19.65 7.01004 19.5 6.80004C19.43 6.70004 19.16 6.37004 18.69 6.49004C18.4258 6.55601 18.1494 6.55635 17.885 6.49103C17.6206 6.42571 17.3762 6.29671 17.173 6.11527C16.9699 5.93383 16.8142 5.70547 16.7196 5.45008C16.625 5.19469 16.5942 4.92003 16.63 4.65004C16.6515 4.49351 16.6235 4.33419 16.55 4.19434C16.4765 4.05449 16.3611 3.9411 16.22 3.87004C16.0836 3.79467 15.9267 3.76471 15.7721 3.78449C15.6174 3.80427 15.4731 3.87276 15.36 3.98004C15.1577 4.16217 14.9139 4.29201 14.6498 4.35824C14.3858 4.42446 14.1095 4.42505 13.8452 4.35996C13.5809 4.29486 13.3365 4.16605 13.1334 3.98479C12.9303 3.80352 12.7747 3.57529 12.68 3.32004C12.54 2.95004 12.22 2.82004 11.97 2.82004C11.72 2.82004 11.39 2.95004 11.26 3.32004C11.1654 3.57529 11.0098 3.80352 10.8067 3.98479C10.6036 4.16605 10.3592 4.29486 10.0949 4.35996C9.83055 4.42505 9.5543 4.42446 9.29025 4.35824C9.0262 4.29201 8.78237 4.16217 8.58004 3.98004C8.46695 3.87276 8.32264 3.80427 8.16802 3.78449C8.0134 3.76471 7.8565 3.79467 7.72004 3.87004C7.49004 3.99004 7.26004 4.26004 7.31004 4.65004C7.38004 5.20004 7.17004 5.75004 6.76005 6.12004C6.35005 6.48004 5.78005 6.62004 5.25005 6.49004C4.78005 6.37004 4.51005 6.69004 4.44005 6.80004C4.34649 6.92955 4.29614 7.08526 4.29614 7.24504C4.29614 7.40481 4.34649 7.56052 4.44005 7.69004C4.76005 8.15004 4.83005 8.73004 4.63005 9.25004C4.43005 9.77004 4.00005 10.15 3.46005 10.28C3.08005 10.37 2.91005 10.68 2.88005 10.94C2.85005 11.2 2.94004 11.54 3.29005 11.72C3.78005 11.97 4.11004 12.46 4.18004 13C4.25004 13.55 4.04005 14.1 3.62004 14.46C3.32004 14.72 3.32005 15.07 3.41005 15.32C3.45005 15.44 3.62005 15.8 4.13005 15.81C4.68005 15.81 5.19005 16.08 5.50005 16.53C5.82004 16.99 5.89005 17.57 5.69005 18.09C5.55005 18.46 5.70005 18.78 5.90005 18.95C5.99005 19.03 6.33005 19.28 6.76005 19.05C7.01005 18.92 7.27004 18.85 7.54004 18.85H7.53005Z" fill="#FAFAFA"/>
<path d="M8.45001 16C8.33001 16 8.22001 15.96 8.13001 15.87C8.08732 15.8283 8.05339 15.7786 8.03022 15.7236C8.00705 15.6686 7.99512 15.6096 7.99512 15.55C7.99512 15.4903 8.00705 15.4313 8.03022 15.3763C8.05339 15.3214 8.08732 15.2716 8.13001 15.23L15.25 8.09997C15.43 7.91997 15.71 7.91997 15.89 8.09997C16.07 8.27997 16.07 8.55997 15.89 8.73997L8.77001 15.87C8.68001 15.96 8.57001 16 8.45001 16ZM14.28 16C13.8238 16 13.3864 15.8188 13.0638 15.4962C12.7412 15.1736 12.56 14.7361 12.56 14.28C12.56 13.8238 12.7412 13.3863 13.0638 13.0637C13.3864 12.7412 13.8238 12.56 14.28 12.56C14.7362 12.56 15.1737 12.7412 15.4962 13.0637C15.8188 13.3863 16 13.8238 16 14.28C16 14.7361 15.8188 15.1736 15.4962 15.4962C15.1737 15.8188 14.7362 16 14.28 16ZM14.28 13.46C13.83 13.46 13.46 13.83 13.46 14.28C13.46 14.73 13.83 15.1 14.28 15.1C14.73 15.1 15.1 14.73 15.1 14.28C15.1 13.83 14.73 13.46 14.28 13.46ZM9.72001 11.45C9.26384 11.45 8.82635 11.2688 8.50379 10.9462C8.18123 10.6236 8.00001 10.1861 8.00001 9.72996C8.00001 9.27379 8.18123 8.8363 8.50379 8.51374C8.82635 8.19118 9.26384 8.00997 9.72001 8.00997C10.1762 8.00997 10.6137 8.19118 10.9362 8.51374C11.2588 8.8363 11.44 9.27379 11.44 9.72996C11.44 10.1861 11.2588 10.6236 10.9362 10.9462C10.6137 11.2688 10.1762 11.45 9.72001 11.45ZM9.72001 8.90997C9.27001 8.90997 8.90001 9.27996 8.90001 9.72996C8.90001 10.18 9.27001 10.55 9.72001 10.55C10.17 10.55 10.54 10.18 10.54 9.72996C10.54 9.27996 10.17 8.90997 9.72001 8.90997Z" fill="#FAFAFA"/>
</svg>
