<svg width="25" height="24" viewBox="0 0 25 24" fill="none" xmlns="http://www.w3.org/2000/svg">
<path d="M20.31 8.84H17.42C16.71 8.84 16.08 9.18 15.68 9.71C15.4803 9.4392 15.2196 9.21929 14.919 9.06813C14.6184 8.91697 14.2865 8.83881 13.95 8.84H11.05C10.34 8.84 9.71 9.18 9.32 9.71C8.92 9.18 8.29 8.84 7.58 8.84H4.69C3.48 8.84 2.5 9.83 2.5 11.04V18.79C2.5 20 3.48 20.99 4.69 20.99H7.58C8.29 20.99 8.93 20.65 9.32 20.11C9.71 20.65 10.34 20.99 11.05 20.99H13.95C14.66 20.99 15.29 20.65 15.68 20.11C16.07 20.65 16.71 20.99 17.42 20.99H20.31C21.52 20.99 22.5 20 22.5 18.79V11.04C22.5 9.83 21.52 8.84 20.31 8.84ZM8.87 18.79C8.87 19.51 8.29 20.08 7.58 20.08H4.69C3.98 20.08 3.4 19.5 3.4 18.79V11.04C3.4 10.32 3.98 9.75 4.69 9.75H7.58C8.29 9.75 8.87 10.33 8.87 11.04V18.79ZM13.95 20.08H11.05C10.34 20.08 9.77 19.5 9.77 18.79V11.04C9.77 10.32 10.34 9.75 11.05 9.75H13.95C14.66 9.75 15.23 10.33 15.23 11.04V18.79C15.23 19.51 14.66 20.08 13.95 20.08ZM21.6 18.79C21.6 19.51 21.02 20.08 20.31 20.08H17.42C16.71 20.08 16.13 19.5 16.13 18.79V11.04C16.13 10.32 16.71 9.75 17.42 9.75H20.31C21.02 9.75 21.6 10.33 21.6 11.04V18.79ZM14.09 7.82L12.5 7.32L10.91 7.82V6.18L9.92 4.84L11.52 4.32L12.5 3L13.48 4.32L15.08 4.84L14.1 6.18V7.82H14.09ZM12.5 6.6L13.41 6.89V5.95L13.96 5.2L13.06 4.91L12.49 4.15L11.92 4.91L11.02 5.2L11.57 5.95V6.89L12.48 6.6H12.5ZM17.65 8.12V6.86L16.89 5.83L18.12 5.43L18.87 4.42L19.62 5.43L20.85 5.83L20.09 6.86V8.12L18.86 7.73L17.64 8.12H17.65ZM18.87 7.02L19.41 7.19V6.63L19.74 6.19L19.21 6.02L18.87 5.56L18.53 6.02L18 6.19L18.33 6.63V7.19L18.87 7.02ZM7.35 8.12L6.13 7.73L4.91 8.12V6.86L4.15 5.83L5.38 5.43L6.13 4.42L6.88 5.43L8.11 5.83L7.35 6.86V8.12ZM5.25 6.19L5.58 6.63V7.19L6.13 7.02L6.67 7.19V6.63L7 6.19L6.47 6.02L6.13 5.56L5.79 6.02L5.26 6.19H5.25Z" fill="#FAFAFA"/>
<path d="M5.73009 17.45C5.48009 17.45 5.28009 17.25 5.28009 17C5.28009 15.37 6.30009 14.03 6.86009 13.42H5.18009V13.98C5.18009 14.23 4.98009 14.43 4.73009 14.43C4.48009 14.43 4.28009 14.23 4.28009 13.98V12.81C4.28009 12.64 4.41009 12.51 4.58009 12.51H7.25009C7.51009 12.51 7.75009 12.64 7.89009 12.87C8.03009 13.09 8.04009 13.37 7.92009 13.61L7.82009 13.75C7.82009 13.75 6.19009 15.23 6.19009 17.01C6.19009 17.26 5.99009 17.46 5.74009 17.46L5.73009 17.45ZM12.0901 17.45C11.8401 17.45 11.6401 17.25 11.6401 17C11.6401 15.37 12.6601 14.03 13.2201 13.42H11.5401V13.98C11.5401 14.23 11.3401 14.43 11.0901 14.43C10.8401 14.43 10.6401 14.23 10.6401 13.98V12.81C10.6401 12.64 10.7701 12.51 10.9401 12.51H13.6101C13.8701 12.51 14.1101 12.64 14.2501 12.87C14.3901 13.09 14.4001 13.37 14.2801 13.61L14.1801 13.75C14.1801 13.75 12.5501 15.23 12.5501 17.01C12.5501 17.26 12.3501 17.46 12.1001 17.46L12.0901 17.45ZM18.4601 17.45C18.2101 17.45 18.0101 17.25 18.0101 17C18.0101 15.37 19.0301 14.03 19.5901 13.42H17.9101V13.98C17.9101 14.23 17.7101 14.43 17.4601 14.43C17.2101 14.43 17.0101 14.23 17.0101 13.98V12.81C17.0101 12.64 17.1401 12.51 17.3101 12.51H19.9801C20.2401 12.51 20.4801 12.64 20.6201 12.87C20.7601 13.09 20.7701 13.37 20.6501 13.61L20.5501 13.75C20.5501 13.75 18.9201 15.23 18.9201 17.01C18.9201 17.26 18.7201 17.46 18.4701 17.46L18.4601 17.45ZM7.72009 19.52H4.54009C4.29009 19.52 4.09009 19.32 4.09009 19.07C4.09009 18.82 4.29009 18.62 4.54009 18.62H7.72009C7.97009 18.62 8.17009 18.82 8.17009 19.07C8.17009 19.32 7.97009 19.52 7.72009 19.52ZM14.0901 19.52H10.9101C10.6601 19.52 10.4601 19.32 10.4601 19.07C10.4601 18.82 10.6601 18.62 10.9101 18.62H14.0901C14.3401 18.62 14.5401 18.82 14.5401 19.07C14.5401 19.32 14.3401 19.52 14.0901 19.52ZM20.4601 19.52H17.2801C17.0301 19.52 16.8301 19.32 16.8301 19.07C16.8301 18.82 17.0301 18.62 17.2801 18.62H20.4601C20.7101 18.62 20.9101 18.82 20.9101 19.07C20.9101 19.32 20.7101 19.52 20.4601 19.52Z" fill="#FAFAFA"/>
</svg>
