<svg width="25" height="24" viewBox="0 0 25 24" fill="none" xmlns="http://www.w3.org/2000/svg">
<path d="M12.75 2C7.24 2 2.75 6.49 2.75 12C2.75 17.51 7.24 22 12.75 22C18.26 22 22.75 17.51 22.75 12C22.75 6.49 18.26 2 12.75 2ZM21.88 11.57H20.35C20.2881 10.5263 20.016 9.50593 19.55 8.57L20.88 7.8C21.46 8.93 21.82 10.2 21.88 11.56V11.57ZM20.44 7.06L19.11 7.84C18.5343 6.96434 17.7857 6.21567 16.91 5.64L17.69 4.31C18.7902 5.03017 19.7298 5.9698 20.45 7.07L20.44 7.06ZM13.18 2.87C14.54 2.94 15.81 3.29 16.94 3.87L16.17 5.2C15.26 4.74 14.25 4.46 13.17 4.4V2.87H13.18ZM12.32 2.87V4.4C11.25 4.47 10.23 4.74 9.32 5.2L8.55 3.87C9.68 3.29 10.95 2.93 12.31 2.87H12.32ZM7.81 4.31L8.58 5.64C7.72 6.21 6.96 6.97 6.39 7.83L5.06 7.06C5.78017 5.9598 6.7198 5.02017 7.82 4.3L7.81 4.31ZM4.62 7.81L5.95 8.58C5.49 9.49 5.21 10.5 5.15 11.58H3.62C3.69 10.22 4.04 8.95 4.62 7.82V7.81ZM3.62 12.43H5.15C5.22 13.5 5.49 14.52 5.95 15.43L4.62 16.2C4.04 15.07 3.68 13.8 3.62 12.44V12.43ZM5.06 16.94L6.39 16.16C6.96 17.03 7.72 17.79 8.59 18.36L7.81 19.69C6.7098 18.9698 5.77017 18.0302 5.05 16.93L5.06 16.94ZM12.32 21.13C11.0099 21.0672 9.72818 20.7264 8.56 20.13L9.33 18.8C10.24 19.26 11.25 19.54 12.33 19.6V21.13H12.32ZM12.32 18.73C11.41 18.68 10.54 18.43 9.76 18.04C9.49531 17.924 9.24386 17.7798 9.01 17.61C8.26007 17.1201 7.61992 16.4799 7.13 15.73C6.96019 15.4961 6.81603 15.2447 6.7 14.98C6.31 14.2 6.06 13.33 6.02 12.42C5.99 12.28 5.99 12.13 5.99 11.99C5.99 11.85 5.99 11.7 6.02 11.56C6.06 10.65 6.31 9.78 6.7 9C6.81 8.74 6.96 8.49 7.13 8.25C7.62 7.5 8.26 6.86 9.01 6.37C9.25 6.2 9.5 6.05 9.76 5.94C10.54 5.55 11.41 5.3 12.32 5.26C12.46 5.23 12.61 5.23 12.75 5.23C12.89 5.23 13.04 5.23 13.18 5.26C14.09 5.3 14.96 5.55 15.74 5.94C16 6.05 16.25 6.2 16.49 6.37C17.24 6.86 17.88 7.5 18.37 8.25C18.54 8.49 18.69 8.74 18.8 9C19.19 9.78 19.44 10.65 19.49 11.56C19.51 11.7 19.51 11.85 19.51 11.99C19.51 12.13 19.51 12.28 19.49 12.42C19.44 13.33 19.19 14.2 18.8 14.98C18.69 15.24 18.54 15.49 18.37 15.73C17.88 16.48 17.24 17.12 16.49 17.61C16.25 17.78 16 17.93 15.74 18.04C14.96 18.43 14.09 18.68 13.18 18.73C13.04 18.75 12.89 18.75 12.75 18.75C12.61 18.75 12.46 18.75 12.32 18.73ZM13.18 21.13V19.6C14.25 19.53 15.27 19.26 16.18 18.8L16.95 20.13C15.82 20.71 14.55 21.07 13.19 21.13H13.18ZM17.69 19.69L16.92 18.36C17.78 17.79 18.54 17.03 19.11 16.17L20.44 16.94C19.7198 18.0402 18.7802 18.9798 17.68 19.7L17.69 19.69ZM20.88 16.19L19.55 15.42C20.01 14.51 20.29 13.5 20.35 12.42H21.88C21.8172 13.7301 21.4764 15.0118 20.88 16.18V16.19Z" fill="#FAFAFA"/>
<path d="M13.26 11.56V9.09999C13.73 9.28999 14.05 9.72999 14.05 10.25C14.05 10.53 14.27 10.75 14.55 10.75C14.83 10.75 15.05 10.53 15.05 10.25C15.05 9.17999 14.28 8.27999 13.26 8.05999V7.48999C13.26 7.20999 13.04 6.98999 12.76 6.98999C12.48 6.98999 12.26 7.20999 12.26 7.48999V8.05999C11.24 8.27999 10.47 9.17999 10.47 10.25C10.47 11.32 11.24 12.22 12.26 12.44V14.9C11.79 14.71 11.47 14.27 11.47 13.75C11.47 13.47 11.25 13.25 10.97 13.25C10.69 13.25 10.47 13.47 10.47 13.75C10.47 14.82 11.24 15.72 12.26 15.94V16.51C12.26 16.79 12.48 17.01 12.76 17.01C13.04 17.01 13.26 16.79 13.26 16.51V15.94C14.28 15.72 15.05 14.82 15.05 13.75C15.05 12.68 14.28 11.78 13.26 11.56ZM12.26 9.09999V11.4C11.79 11.21 11.47 10.77 11.47 10.25C11.47 9.72999 11.8 9.28999 12.26 9.09999ZM14.05 13.75C14.05 14.27 13.72 14.71 13.26 14.9V12.6C13.73 12.79 14.05 13.23 14.05 13.75Z" fill="#FAFAFA"/>
</svg>
