<svg width="25" height="24" viewBox="0 0 25 24" fill="none" xmlns="http://www.w3.org/2000/svg">
<path d="M21.89 9.35C21.4243 7.65329 20.5188 6.10965 19.265 4.87521C18.0112 3.64078 16.4537 2.75932 14.75 2.32C13.95 2.11 13.11 2 12.25 2C11.39 2 10.55 2.11 9.75 2.32C8.04626 2.75932 6.48875 3.64078 5.235 4.87521C3.98125 6.10965 3.07572 7.65329 2.61 9.35C2.37 10.19 2.25 11.08 2.25 12C2.25 12.92 2.38 13.82 2.62 14.67C3.07056 16.3161 3.93859 17.8179 5.14 19.03C6.40346 20.3084 7.98963 21.2207 9.73 21.67C10.54 21.89 11.38 22 12.25 22C13.12 22 13.96 21.89 14.77 21.67C16.5104 21.2207 18.0965 20.3084 19.36 19.03C20.5614 17.8179 21.4294 16.3161 21.88 14.67C22.12 13.82 22.25 12.92 22.25 12C22.25 11.08 22.13 10.19 21.89 9.35ZM20.83 8.98L19.4 11.47H16.3L14.75 8.78L16.3 6.1H19.16C19.89 6.94 20.46 7.91 20.83 8.98ZM10.7 14.7L9.15 12.02L10.7 9.33H13.8L15.35 12.02L13.8 14.7H10.7ZM18.05 5H16.3L15.41 3.47C16.38 3.83 17.27 4.35 18.05 5ZM10.58 3.06C11.12 2.95 11.68 2.9 12.25 2.9C12.82 2.9 13.38 2.95 13.92 3.06L15.35 5.55L13.8 8.23H10.7L9.15 5.55L10.58 3.06ZM9.09 3.47L8.2 5H6.45C7.23684 4.34394 8.12958 3.82655 9.09 3.47ZM5.34 6.1H8.2L9.75 8.78L8.2 11.47H5.1L3.67 8.98C4.04 7.91 4.61 6.94 5.34 6.1ZM3.15 12C3.15 11.49 3.19 10.99 3.28 10.51L4.15 12.02L3.28 13.52C3.19 13.03 3.15 12.52 3.15 12ZM3.67 15.04L5.1 12.56H8.2L9.75 15.25L8.2 17.93H5.36C4.62109 17.0807 4.04786 16.1004 3.67 15.04ZM6.48 19.03H8.2L9.06 20.52C8.12181 20.1731 7.2494 19.6692 6.48 19.03ZM13.93 20.94C13.39 21.05 12.83 21.1 12.25 21.1C11.67 21.1 11.11 21.05 10.57 20.94L9.15 18.48L10.71 15.79H13.79L15.35 18.48L13.93 20.94ZM15.44 20.52L16.3 19.03H18.02C17.2506 19.6692 16.3782 20.1731 15.44 20.52ZM19.14 17.93H16.3L14.75 15.25L16.3 12.56H19.4L20.83 15.04C20.4521 16.1004 19.8789 17.0807 19.14 17.93ZM21.22 13.52L20.35 12.02L21.22 10.51C21.31 10.99 21.35 11.49 21.35 12C21.35 12.51 21.31 13.03 21.22 13.52Z" fill="#FAFAFA"/>
</svg>
